<?xml version="1.0" encoding="UTF-8"?>
<!DOCTYPE svg PUBLIC "-//W3C//DTD SVG 1.1//EN" "http://www.w3.org/Graphics/SVG/1.1/DTD/svg11.dtd">
<!-- Creator: CorelDRAW X7 -->
<svg xmlns="http://www.w3.org/2000/svg" xml:space="preserve" width="16.8189mm" height="5.9202mm" version="1.1" style="shape-rendering:geometricPrecision; text-rendering:geometricPrecision; image-rendering:optimizeQuality; fill-rule:evenodd; clip-rule:evenodd"
viewBox="0 0 1693 596"
 xmlns:xlink="http://www.w3.org/1999/xlink">
 <defs>
  <style type="text/css">
   <![CDATA[
    .fil0 {fill:black}
    .fil1 {fill:#E31D1D}
   ]]>
  </style>
 </defs>
 <g id="Layer_x0020_1">
  <metadata id="CorelCorpID_0Corel-Layer"/>
  <polygon class="fil0" points="415,491 542,0 747,0 773,235 920,0 1124,0 997,491 849,491 926,196 739,491 673,491 639,196 563,491 "/>
  <polygon class="fil0" points="1027,491 1154,0 1302,0 1175,491 "/>
  <polygon class="fil0" points="13,491 140,0 512,0 479,130 254,130 242,178 461,178 428,308 208,308 194,361 419,361 385,491 "/>
  <polygon class="fil1" points="1183,596 1693,282 1344,0 "/>
  <path class="fil0" d="M0 592l11 -59 39 0 -2 10 -27 0 -2 13 25 0 -2 10 -25 0 -3 16 29 0 -2 10 -41 0zm50 0l10 -59 11 0 -10 59 -11 0zm36 -26l17 0c0,-1 0,-1 0,-1 1,0 1,-1 1,-1 0,-3 -1,-5 -2,-6 -2,-1 -4,-2 -6,-2 -3,0 -5,1 -7,2 -1,2 -3,5 -3,8zm15 13l12 0c-1,5 -3,8 -7,10 -4,3 -8,4 -14,4 -6,0 -10,-2 -14,-5 -3,-4 -5,-9 -5,-16 0,-7 2,-13 7,-18 4,-5 9,-7 16,-7 6,0 11,2 14,5 3,3 5,8 5,14 0,1 0,2 0,3 0,1 0,3 -1,5l-29 0 0 0c0,3 0,6 2,7 1,2 3,3 6,3 2,0 3,-1 4,-1 2,-1 3,-2 4,-4zm49 -3l12 0c-1,6 -3,10 -7,13 -4,3 -8,4 -14,4 -6,0 -11,-2 -15,-5 -3,-4 -5,-9 -5,-16 0,-7 2,-13 7,-18 4,-5 9,-7 16,-7 6,0 11,1 14,4 3,3 5,7 5,12l-12 0c0,-2 0,-4 -2,-5 -1,-1 -3,-2 -5,-2 -3,0 -6,2 -8,5 -2,3 -3,7 -3,12 0,4 1,6 2,8 2,2 4,2 6,2 3,0 5,0 6,-1 2,-2 3,-4 3,-6zm36 16c-1,1 -2,1 -3,1 -1,0 -2,0 -3,0 -4,0 -7,0 -8,-2 -2,-1 -3,-3 -3,-6 0,-1 0,-1 0,-2 0,0 0,-1 0,-2l5 -25 -6 0 1 -8 6 0 2 -13 12 0 -3 13 7 0 -2 8 -6 0 -4 21c0,1 0,2 0,2 0,1 0,2 0,2 0,0 0,1 1,2 0,0 1,0 2,0 0,0 1,0 1,0 1,0 2,0 3,-1l-2 10zm7 0l8 -44 10 0 -1 9c1,-4 3,-6 5,-8 3,-1 5,-2 8,-2 1,0 1,0 1,0 1,0 1,0 1,0l-2 12c-1,0 -2,0 -3,0 0,-1 -1,-1 -1,-1 -3,0 -5,1 -7,4 -2,2 -3,5 -4,9l-3 21 -12 0zm57 -36c-4,0 -7,2 -9,5 -3,4 -4,8 -4,12 0,4 1,6 2,8 2,2 4,3 7,3 4,0 7,-2 9,-5 3,-3 4,-7 4,-12 0,-4 -1,-6 -3,-8 -1,-2 -3,-3 -6,-3zm-25 17c0,-8 3,-14 7,-19 5,-5 11,-7 18,-7 7,0 12,1 15,5 4,4 5,9 5,15 0,8 -2,14 -7,19 -4,5 -10,7 -17,7 -7,0 -12,-2 -15,-5 -4,-4 -6,-9 -6,-15zm50 19l7 -44 11 0 -1 7c2,-3 4,-5 7,-7 2,-1 5,-1 7,-1 4,0 8,1 10,3 2,2 3,5 3,9 0,0 0,1 0,2 0,1 0,2 0,3l-5 28 -12 0 5 -28c0,-1 0,-1 0,-2 0,0 0,0 0,-1 0,-1 0,-3 -1,-3 -1,-1 -2,-2 -4,-2 -3,0 -6,1 -8,3 -2,3 -3,6 -4,9l-4 24 -11 0zm58 -49l2 -10 11 0 -2 10 -11 0zm-9 49l8 -44 11 0 -7 44 -12 0zm53 -16l11 0c-1,6 -3,10 -6,13 -4,3 -9,4 -14,4 -7,0 -12,-2 -15,-5 -4,-4 -5,-9 -5,-16 0,-7 2,-13 6,-18 4,-5 10,-7 17,-7 6,0 10,1 13,4 4,3 5,7 5,12l-11 0c0,-2 -1,-4 -2,-5 -1,-1 -3,-2 -5,-2 -4,0 -6,2 -9,5 -2,3 -3,7 -3,12 0,4 1,6 3,8 1,2 3,2 6,2 2,0 4,0 6,-1 1,-2 2,-4 3,-6zm17 1l11 0c0,2 0,4 2,5 1,2 3,2 6,2 2,0 3,0 4,-1 2,-1 2,-2 2,-3 0,-2 -2,-4 -6,-5l-1 0c-6,-2 -10,-4 -12,-6 -2,-2 -3,-5 -3,-9 0,-4 2,-7 5,-10 3,-2 7,-3 13,-3 5,0 10,1 13,4 3,2 4,6 4,10l-11 0c0,-1 -1,-3 -2,-4 -1,-1 -3,-2 -5,-2 -2,0 -3,1 -4,1 -1,1 -2,2 -2,3 0,2 3,4 8,5l0 1c6,1 9,3 11,5 2,2 3,5 3,8 0,5 -1,9 -5,11 -3,3 -7,4 -13,4 -6,0 -10,-1 -13,-4 -4,-3 -5,-7 -5,-12l0 0zm66 15l10 -59 19 0 4 42 20 -42 17 0 -10 59 -12 0 9 -48 -21 48 -12 0 -4 -47 -8 47 -12 0zm99 -21c-2,0 -4,1 -7,1 -6,2 -9,4 -9,7 0,2 0,3 1,3 1,1 2,2 4,2 2,0 5,-1 6,-3 2,-1 3,-3 4,-5l1 -5zm-2 17c-2,1 -4,3 -6,4 -2,0 -4,1 -7,1 -4,0 -7,-1 -9,-4 -2,-2 -4,-5 -4,-9 0,-5 2,-8 5,-11 2,-2 7,-4 14,-5 1,0 1,0 3,0 5,0 7,-2 7,-4 0,-2 0,-3 -1,-3 -2,-1 -3,-1 -5,-1 -2,0 -4,0 -5,1 -1,0 -2,2 -2,3l-11 0c1,-4 2,-8 6,-10 3,-2 7,-3 12,-3 6,0 10,1 13,3 3,2 5,5 5,9 0,1 0,1 0,1 0,1 0,1 0,2l-4 23c0,1 0,1 0,1 0,1 0,1 0,2 0,0 0,1 0,1 0,1 0,1 1,2l0 1 -12 0 0 -4zm20 4l8 -44 11 0 -2 9c2,-4 4,-6 6,-8 2,-1 4,-2 7,-2 1,0 1,0 2,0 0,0 0,0 0,0l-2 12c-1,0 -2,0 -2,0 -1,-1 -1,-1 -2,-1 -3,0 -5,1 -7,4 -1,2 -3,5 -3,9l-4 21 -12 0zm51 0c-1,1 -2,1 -3,1 -1,0 -2,0 -3,0 -4,0 -7,0 -9,-2 -2,-1 -3,-3 -3,-6 0,-1 0,-1 0,-2 0,0 1,-1 1,-2l4 -25 -6 0 1 -8 6 0 3 -13 11 0 -2 13 6 0 -1 8 -6 0 -4 21c0,1 0,2 -1,2 0,1 0,2 0,2 0,0 0,1 1,2 0,0 1,0 2,0 0,0 1,0 2,0 0,0 1,0 2,-1l-1 10zm31 0l11 -59 12 0 -11 59 -12 0zm24 0l8 -44 10 0 -1 7c2,-3 5,-5 7,-7 2,-1 5,-1 8,-1 4,0 7,1 9,3 3,2 4,5 4,9 0,0 0,1 0,2 0,1 0,2 -1,3l-5 28 -11 0 5 -28c0,-1 0,-1 0,-2 0,0 0,0 0,-1 0,-1 -1,-3 -2,-3 0,-1 -2,-2 -4,-2 -3,0 -5,1 -7,3 -2,3 -4,6 -4,9l-5 24 -11 0zm74 -35c-3,0 -6,1 -8,5 -2,3 -3,7 -3,11 0,4 0,6 2,8 1,2 3,2 6,2 3,0 6,-1 8,-4 2,-4 3,-8 3,-13 0,-3 -1,-5 -2,-7 -2,-1 -4,-2 -6,-2zm5 35l1 -8c-2,3 -4,6 -6,7 -2,1 -5,2 -8,2 -4,0 -8,-2 -11,-5 -3,-3 -4,-8 -4,-14 0,-8 2,-14 6,-19 4,-6 9,-8 14,-8 4,0 6,0 8,2 2,1 4,3 5,7l4 -23 12 0 -11 59 -10 0zm29 -49l2 -10 12 0 -2 10 -12 0zm-8 49l8 -44 11 0 -8 44 -11 0zm49 -21c-2,0 -4,1 -7,1 -6,2 -9,4 -9,7 0,2 1,3 2,3 0,1 2,2 3,2 3,0 5,-1 7,-3 2,-1 3,-3 3,-5l1 -5zm-2 17c-2,1 -4,3 -6,4 -2,0 -4,1 -6,1 -4,0 -7,-1 -10,-4 -2,-2 -3,-5 -3,-9 0,-5 1,-8 4,-11 3,-2 8,-4 14,-5 1,0 2,0 3,0 5,0 8,-2 8,-4 0,-2 -1,-3 -2,-3 -1,-1 -3,-1 -5,-1 -2,0 -3,0 -5,1 -1,0 -1,2 -2,3l-11 0c1,-4 3,-8 6,-10 3,-2 7,-3 13,-3 5,0 10,1 13,3 3,2 4,5 4,9 0,1 0,1 0,1 0,1 0,1 0,2l-4 23c0,1 0,1 0,1 0,1 0,1 0,2 0,0 0,1 0,1 0,1 1,1 1,2l0 1 -12 0 0 -4zm45 4l10 -59 13 0 -9 48 28 0 -2 11 -40 0zm53 -49l2 -10 11 0 -1 10 -12 0zm-9 49l8 -44 12 0 -8 44 -12 0zm22 0l8 -44 10 0 -1 7c3,-3 5,-5 7,-6 2,-2 5,-2 8,-2 2,0 5,0 7,2 1,1 3,3 3,5 3,-2 5,-4 7,-6 2,-1 5,-1 7,-1 4,0 7,1 9,3 2,2 3,5 3,9 0,1 0,1 0,2 0,1 0,1 0,2l-6 29 -11 0 5 -29c0,-1 0,-1 0,-1 0,0 0,-1 0,-1 0,-1 0,-3 -1,-3 -1,-1 -2,-2 -4,-2 -2,0 -4,2 -6,4 -2,2 -3,5 -4,9l-4 23 -12 0 6 -29c0,-1 0,-1 0,-1 0,0 0,-1 0,-1 0,-2 -1,-3 -1,-3 -1,-1 -2,-2 -4,-2 -2,0 -5,2 -6,4 -2,2 -3,5 -4,9l-5 23 -11 0zm82 -49l1 -10 12 0 -2 10 -11 0zm-9 49l8 -44 11 0 -8 44 -11 0zm41 0c-1,1 -2,1 -3,1 -1,0 -2,0 -3,0 -4,0 -7,0 -8,-2 -2,-1 -3,-3 -3,-6 0,-1 0,-1 0,-2 0,0 0,-1 0,-2l5 -25 -7 0 2 -8 6 0 2 -13 12 0 -3 13 7 0 -2 8 -6 0 -4 21c0,1 0,2 0,2 0,1 0,2 0,2 0,0 0,1 0,2 1,0 2,0 3,0 0,0 0,0 1,0 1,0 2,0 3,-1l-2 10zm21 -26l18 0c0,-1 0,-1 0,-1 0,0 0,-1 0,-1 0,-3 -1,-5 -2,-6 -2,-1 -3,-2 -6,-2 -3,0 -5,1 -7,2 -1,2 -3,5 -3,8zm15 13l12 0c-1,5 -3,8 -7,10 -4,3 -8,4 -14,4 -6,0 -10,-2 -14,-5 -3,-4 -5,-9 -5,-16 0,-7 2,-13 7,-18 4,-5 9,-7 16,-7 6,0 11,2 14,5 4,3 5,8 5,14 0,1 0,2 0,3 0,1 0,3 0,5l-30 0 0 0c0,3 1,6 2,7 1,2 3,3 6,3 2,0 3,-1 5,-1 1,-1 2,-2 3,-4zm43 -22c-3,0 -6,1 -8,5 -2,3 -3,7 -3,11 0,4 0,6 2,8 1,2 3,2 6,2 3,0 6,-1 8,-4 2,-4 3,-8 3,-13 0,-3 -1,-5 -2,-7 -2,-1 -4,-2 -6,-2zm5 35l1 -8c-2,3 -4,6 -6,7 -2,1 -5,2 -7,2 -5,0 -9,-2 -12,-5 -3,-3 -4,-8 -4,-14 0,-8 2,-14 6,-19 4,-6 9,-8 14,-8 4,0 6,0 8,2 2,1 4,3 5,7l4 -23 12 0 -11 59 -10 0z"/>
 </g>
</svg>
